<?xml version="1.0" encoding="UTF-8"?>
<!DOCTYPE svg PUBLIC "-//W3C//DTD SVG 1.1//EN" "http://www.w3.org/Graphics/SVG/1.1/DTD/svg11.dtd">
<!-- Creator: CorelDRAW X8 -->
<svg xmlns="http://www.w3.org/2000/svg" xml:space="preserve" width="210mm" height="297mm" version="1.1" style="shape-rendering:geometricPrecision; text-rendering:geometricPrecision; image-rendering:optimizeQuality; fill-rule:evenodd; clip-rule:evenodd"
viewBox="0 0 21000 29700"
 xmlns:xlink="http://www.w3.org/1999/xlink">
 <defs>
  <style type="text/css">
   <![CDATA[
    .fil0 {fill:#3D3D3D}
    .fil1 {fill:#FBBB64}
   ]]>
  </style>
 </defs>
 <g id="Layer_x0020_1">
  <metadata id="CorelCorpID_0Corel-Layer"/>
  <g id="_1701361660704">
   <path class="fil0" d="M11679 11307c6,-103 28,-93 131,-101 -49,94 -15,67 -131,101zm1264 738l194 0c45,-19 115,-42 171,-68 138,-66 272,-258 265,-407 -262,27 -213,378 -869,88 -160,-71 -575,-351 -678,-495 119,-253 279,-872 338,-1199 38,-215 104,-218 126,-353l-80 0c-55,76 -32,64 -117,113 -223,131 -567,124 -709,317 -183,250 -4,250 -4,250 54,-122 -11,-216 212,-256 172,-32 273,-48 404,-106 -211,534 -230,513 -337,1159 -65,4 -63,-2 -129,16 -371,100 -14,576 238,200 225,102 242,385 577,521 152,62 37,1 140,74 75,54 169,91 258,146z"/>
   <path class="fil0" d="M13696 10315c-204,65 -96,112 -222,235 62,-130 58,-169 36,-328 -100,44 -116,14 -183,222 -134,415 -137,566 -324,672 12,-262 261,-653 -12,-822l-77 124c-17,37 -25,64 -39,100 -35,84 -65,146 -94,224 -85,234 -72,196 -216,353 -4,5 -18,27 -21,20 -4,-6 -16,14 -24,20 -12,-229 280,-959 10,-823 -58,30 -114,140 -148,209 -400,811 175,891 327,668 55,37 142,125 269,98 142,-30 98,-100 181,-204l22 237c363,-84 113,-204 397,-773 23,-46 43,-71 67,-109 66,-106 33,-7 51,-123z"/>
   <path class="fil0" d="M13696 10315l135 -37c-62,385 -337,658 -106,1029 200,17 244,-24 325,-161 125,150 149,174 407,164 48,-57 39,-59 89,-102 228,183 368,-46 409,-286 -77,56 -133,166 -199,231 -32,-304 95,-529 -142,-630 -81,133 -178,509 -241,653 -145,-91 -97,-66 -101,-261 -3,-160 -48,-92 9,-227 135,-319 210,-222 341,-301 -90,-98 -123,-139 -259,-78 -347,156 -334,571 -347,796 -176,110 21,52 -174,103 -31,-297 287,-1072 -62,-987 -177,43 -75,32 -84,94z"/>
  </g>
  <ellipse class="fil1" cx="15069" cy="11145" rx="126" ry="157"/>
 </g>
</svg>
